<mxfile host="app.diagrams.net" modified="2020-12-03T06:19:00.966Z" agent="5.0 (Windows)" etag="nrOKBrdoqxm7h88qdV6z" version="13.10.6" type="github">
  <diagram id="aq4iRbVSpHxAqp47M2av" name="Page-1">
    <mxGraphModel dx="878" dy="546" grid="1" gridSize="10" guides="1" tooltips="1" connect="1" arrows="1" fold="1" page="0" pageScale="1" pageWidth="827" pageHeight="1169" math="1" shadow="0">
      <root>
        <mxCell id="0" />
        <mxCell id="1" parent="0" />
        <mxCell id="JFULPdk7UiSNDiHIxE1C-34" value="" style="rounded=0;whiteSpace=wrap;html=1;strokeColor=#C73500;fillColor=#fa6800;opacity=50;dashed=1;fontColor=#ffffff;" parent="1" vertex="1">
          <mxGeometry x="160" y="200" width="30" height="150" as="geometry" />
        </mxCell>
        <mxCell id="JFULPdk7UiSNDiHIxE1C-35" value="" style="rounded=0;whiteSpace=wrap;html=1;strokeColor=#BD7000;fillColor=#f0a30a;opacity=50;dashed=1;fontColor=#ffffff;" parent="1" vertex="1">
          <mxGeometry x="160" y="110" width="30" height="150" as="geometry" />
        </mxCell>
        <mxCell id="JFULPdk7UiSNDiHIxE1C-36" value="" style="rounded=0;whiteSpace=wrap;html=1;strokeColor=#B09500;fillColor=#e3c800;opacity=50;dashed=1;fontColor=#ffffff;" parent="1" vertex="1">
          <mxGeometry x="160" y="20" width="30" height="150" as="geometry" />
        </mxCell>
        <mxCell id="JFULPdk7UiSNDiHIxE1C-38" value="" style="shape=curlyBracket;whiteSpace=wrap;html=1;rounded=1;strokeColor=#000000;fillColor=#D79B00;opacity=50;rotation=-180;" parent="1" vertex="1">
          <mxGeometry x="190" y="260" width="20" height="90" as="geometry" />
        </mxCell>
        <mxCell id="JFULPdk7UiSNDiHIxE1C-39" value="" style="shape=curlyBracket;whiteSpace=wrap;html=1;rounded=1;strokeColor=#000000;fillColor=#D79B00;opacity=50;rotation=-180;" parent="1" vertex="1">
          <mxGeometry x="190" y="200" width="20" height="150" as="geometry" />
        </mxCell>
        <mxCell id="JFULPdk7UiSNDiHIxE1C-41" value="&lt;font style=&quot;font-size: 18px&quot;&gt;stride&lt;/font&gt;" style="text;html=1;align=center;verticalAlign=middle;resizable=0;points=[];autosize=1;" parent="1" vertex="1">
          <mxGeometry x="210" y="295" width="60" height="20" as="geometry" />
        </mxCell>
        <mxCell id="JFULPdk7UiSNDiHIxE1C-42" value="&lt;font style=&quot;font-size: 20px&quot;&gt;window size&lt;/font&gt;" style="text;html=1;align=center;verticalAlign=middle;resizable=0;points=[];autosize=1;" parent="1" vertex="1">
          <mxGeometry x="226" y="266" width="120" height="20" as="geometry" />
        </mxCell>
        <mxCell id="JFULPdk7UiSNDiHIxE1C-44" value="&lt;font style=&quot;font-size: 20px&quot;&gt;Input feature vector &lt;b&gt;x&lt;/b&gt;&lt;br&gt;&lt;/font&gt;" style="text;html=1;align=center;verticalAlign=middle;resizable=0;points=[];autosize=1;rotation=-90;" parent="1" vertex="1">
          <mxGeometry x="40" y="160" width="200" height="20" as="geometry" />
        </mxCell>
        <mxCell id="JFULPdk7UiSNDiHIxE1C-45" value="" style="rounded=0;whiteSpace=wrap;html=1;strokeColor=#C73500;fillColor=#fa6800;opacity=70;fontColor=#ffffff;rotation=90;" parent="1" vertex="1">
          <mxGeometry x="350" y="125" width="30" height="150" as="geometry" />
        </mxCell>
        <mxCell id="JFULPdk7UiSNDiHIxE1C-46" value="" style="rounded=0;whiteSpace=wrap;html=1;strokeColor=#BD7000;fillColor=#f0a30a;opacity=70;fontColor=#ffffff;rotation=90;" parent="1" vertex="1">
          <mxGeometry x="350" y="95" width="30" height="150" as="geometry" />
        </mxCell>
        <mxCell id="JFULPdk7UiSNDiHIxE1C-47" value="" style="rounded=0;whiteSpace=wrap;html=1;strokeColor=#B09500;fillColor=#e3c800;opacity=70;fontColor=#ffffff;rotation=90;" parent="1" vertex="1">
          <mxGeometry x="350" y="65" width="30" height="150" as="geometry" />
        </mxCell>
        <mxCell id="JFULPdk7UiSNDiHIxE1C-48" value="" style="endArrow=classic;html=1;exitX=1;exitY=0.5;exitDx=0;exitDy=0;entryX=0.5;entryY=1;entryDx=0;entryDy=0;dashed=1;" parent="1" source="JFULPdk7UiSNDiHIxE1C-34" target="JFULPdk7UiSNDiHIxE1C-45" edge="1">
          <mxGeometry width="50" height="50" relative="1" as="geometry">
            <mxPoint x="340" y="210" as="sourcePoint" />
            <mxPoint x="240" y="210" as="targetPoint" />
          </mxGeometry>
        </mxCell>
        <mxCell id="JFULPdk7UiSNDiHIxE1C-49" value="" style="endArrow=classic;html=1;exitX=1;exitY=0.5;exitDx=0;exitDy=0;entryX=0.5;entryY=1;entryDx=0;entryDy=0;dashed=1;" parent="1" source="JFULPdk7UiSNDiHIxE1C-35" target="JFULPdk7UiSNDiHIxE1C-46" edge="1">
          <mxGeometry width="50" height="50" relative="1" as="geometry">
            <mxPoint x="189.9999999999999" y="195" as="sourcePoint" />
            <mxPoint x="279.9999999999999" y="145" as="targetPoint" />
          </mxGeometry>
        </mxCell>
        <mxCell id="JFULPdk7UiSNDiHIxE1C-50" value="" style="endArrow=classic;html=1;exitX=1;exitY=0.5;exitDx=0;exitDy=0;entryX=0.5;entryY=1;entryDx=0;entryDy=0;dashed=1;" parent="1" source="JFULPdk7UiSNDiHIxE1C-36" target="JFULPdk7UiSNDiHIxE1C-47" edge="1">
          <mxGeometry width="50" height="50" relative="1" as="geometry">
            <mxPoint x="204.9999999999999" y="100" as="sourcePoint" />
            <mxPoint x="294.9999999999999" y="110" as="targetPoint" />
          </mxGeometry>
        </mxCell>
        <mxCell id="JFULPdk7UiSNDiHIxE1C-51" value="&lt;font style=&quot;font-size: 20px&quot;&gt;Local feature matrix&lt;/font&gt;" style="text;html=1;align=center;verticalAlign=middle;resizable=0;points=[];autosize=1;" parent="1" vertex="1">
          <mxGeometry x="270" y="95" width="190" height="20" as="geometry" />
        </mxCell>
        <mxCell id="JFULPdk7UiSNDiHIxE1C-52" value="" style="rounded=0;whiteSpace=wrap;html=1;strokeColor=#C73500;fillColor=#fa6800;opacity=70;fontColor=#ffffff;rotation=90;" parent="1" vertex="1">
          <mxGeometry x="733" y="80" width="30" height="150" as="geometry" />
        </mxCell>
        <mxCell id="JFULPdk7UiSNDiHIxE1C-53" value="" style="rounded=0;whiteSpace=wrap;html=1;strokeColor=#BD7000;fillColor=#f0a30a;opacity=70;fontColor=#ffffff;rotation=90;" parent="1" vertex="1">
          <mxGeometry x="733" y="50" width="30" height="150" as="geometry" />
        </mxCell>
        <mxCell id="JFULPdk7UiSNDiHIxE1C-54" value="" style="rounded=0;whiteSpace=wrap;html=1;strokeColor=#B09500;fillColor=#e3c800;opacity=70;fontColor=#ffffff;rotation=90;" parent="1" vertex="1">
          <mxGeometry x="733" y="20" width="30" height="150" as="geometry" />
        </mxCell>
        <mxCell id="JFULPdk7UiSNDiHIxE1C-55" value="" style="endArrow=none;dashed=1;html=1;dashPattern=1 3;strokeWidth=2;" parent="1" edge="1">
          <mxGeometry width="50" height="50" relative="1" as="geometry">
            <mxPoint x="740" y="200" as="sourcePoint" />
            <mxPoint x="740" y="170" as="targetPoint" />
          </mxGeometry>
        </mxCell>
        <mxCell id="JFULPdk7UiSNDiHIxE1C-56" value="" style="rounded=0;whiteSpace=wrap;html=1;strokeColor=#b85450;fillColor=#f8cecc;opacity=70;rotation=90;" parent="1" vertex="1">
          <mxGeometry x="733" y="145" width="30" height="150" as="geometry" />
        </mxCell>
        <mxCell id="JFULPdk7UiSNDiHIxE1C-59" value="" style="rounded=0;whiteSpace=wrap;html=1;strokeColor=#b85450;fillColor=#f8cecc;opacity=70;rotation=90;" parent="1" vertex="1">
          <mxGeometry x="770" width="20" height="115" as="geometry" />
        </mxCell>
        <mxCell id="JFULPdk7UiSNDiHIxE1C-60" value="" style="rounded=0;whiteSpace=wrap;html=1;strokeColor=#d6b656;fillColor=#fff2cc;opacity=70;rotation=90;" parent="1" vertex="1">
          <mxGeometry x="770" y="-20" width="20" height="115" as="geometry" />
        </mxCell>
        <mxCell id="JFULPdk7UiSNDiHIxE1C-61" value="" style="endArrow=none;dashed=1;html=1;dashPattern=1 3;strokeWidth=2;exitX=0;exitY=1;exitDx=0;exitDy=0;entryX=0;entryY=1;entryDx=0;entryDy=0;opacity=50;" parent="1" source="JFULPdk7UiSNDiHIxE1C-54" target="JFULPdk7UiSNDiHIxE1C-60" edge="1">
          <mxGeometry width="50" height="50" relative="1" as="geometry">
            <mxPoint x="670" y="80" as="sourcePoint" />
            <mxPoint x="720" y="30" as="targetPoint" />
          </mxGeometry>
        </mxCell>
        <mxCell id="JFULPdk7UiSNDiHIxE1C-62" value="" style="endArrow=none;dashed=1;html=1;dashPattern=1 3;strokeWidth=2;exitX=1;exitY=1;exitDx=0;exitDy=0;entryX=1;entryY=1;entryDx=0;entryDy=0;opacity=50;" parent="1" source="JFULPdk7UiSNDiHIxE1C-53" target="JFULPdk7UiSNDiHIxE1C-59" edge="1">
          <mxGeometry width="50" height="50" relative="1" as="geometry">
            <mxPoint x="600" y="119.99999999999994" as="sourcePoint" />
            <mxPoint x="647" y="69.99999999999994" as="targetPoint" />
          </mxGeometry>
        </mxCell>
        <mxCell id="JFULPdk7UiSNDiHIxE1C-63" value="" style="endArrow=none;dashed=1;html=1;dashPattern=1 3;strokeWidth=2;exitX=0;exitY=0;exitDx=0;exitDy=0;entryX=0;entryY=0;entryDx=0;entryDy=0;opacity=50;" parent="1" source="JFULPdk7UiSNDiHIxE1C-54" target="JFULPdk7UiSNDiHIxE1C-60" edge="1">
          <mxGeometry width="50" height="50" relative="1" as="geometry">
            <mxPoint x="850" y="124.99999999999994" as="sourcePoint" />
            <mxPoint x="897" y="74.99999999999994" as="targetPoint" />
          </mxGeometry>
        </mxCell>
        <mxCell id="JFULPdk7UiSNDiHIxE1C-64" value="" style="endArrow=none;dashed=1;html=1;dashPattern=1 3;strokeWidth=2;exitX=1;exitY=0;exitDx=0;exitDy=0;entryX=1;entryY=0;entryDx=0;entryDy=0;opacity=50;" parent="1" source="JFULPdk7UiSNDiHIxE1C-53" target="JFULPdk7UiSNDiHIxE1C-59" edge="1">
          <mxGeometry width="50" height="50" relative="1" as="geometry">
            <mxPoint x="860" y="142.49999999999994" as="sourcePoint" />
            <mxPoint x="874.5" y="90.00000000000006" as="targetPoint" />
          </mxGeometry>
        </mxCell>
        <mxCell id="FGNfgFUYK2UroY3YNAME-1" value="&lt;font style=&quot;font-size: 22px&quot;&gt;$$w$$&lt;/font&gt;" style="text;html=1;align=center;verticalAlign=middle;resizable=0;points=[];autosize=1;" vertex="1" parent="1">
          <mxGeometry x="320" y="265" width="80" height="20" as="geometry" />
        </mxCell>
        <mxCell id="FGNfgFUYK2UroY3YNAME-2" value="&lt;font style=&quot;font-size: 22px&quot;&gt;$$s$$&lt;/font&gt;" style="text;html=1;align=center;verticalAlign=middle;resizable=0;points=[];autosize=1;" vertex="1" parent="1">
          <mxGeometry x="240" y="295" width="80" height="20" as="geometry" />
        </mxCell>
        <mxCell id="FGNfgFUYK2UroY3YNAME-3" value="&lt;font style=&quot;font-size: 22px&quot;&gt;$$M$$&lt;/font&gt;" style="text;html=1;align=center;verticalAlign=middle;resizable=0;points=[];autosize=1;" vertex="1" parent="1">
          <mxGeometry x="440" y="95" width="80" height="20" as="geometry" />
        </mxCell>
      </root>
    </mxGraphModel>
  </diagram>
</mxfile>
